HIERARCHY
ROOT Hips
{
	OFFSET 0.00 0.00 0.00
	CHANNELS 6 Xposition Yposition Zposition Xrotation Yrotation Zrotation
	JOINT LeftUpLeg
	{
		OFFSET 3.64953 0.00000 0.00000
		CHANNELS 3 Xrotation Yrotation Zrotation
		JOINT LeftLeg
		{
			OFFSET 0.00000 -15.70580 0.00000
			CHANNELS 3 Xrotation Yrotation Zrotation
			JOINT LeftFoot
			{
				OFFSET 0.00000 -15.41867 0.00000
				CHANNELS 3 Xrotation Yrotation Zrotation
				JOINT LeftToeBase
				{
					OFFSET 0.00000 -1.53543 5.73033
					CHANNELS 3 Xrotation Yrotation Zrotation
					End Site
					{
						OFFSET 0.00000 0.00000 2.95275
					}
				}
			}
		}
	}
	JOINT RightUpLeg
	{
		OFFSET -3.64953 0.00000 0.00000
		CHANNELS 3 Xrotation Yrotation Zrotation
		JOINT RightLeg
		{
			OFFSET 0.00000 -15.70580 0.00000
			CHANNELS 3 Xrotation Yrotation Zrotation
			JOINT RightFoot
			{
				OFFSET 0.00000 -15.41867 0.00000
				CHANNELS 3 Xrotation Yrotation Zrotation
				JOINT RightToeBase
				{
					OFFSET 0.00000 -1.53543 5.73033
					CHANNELS 3 Xrotation Yrotation Zrotation
					End Site
					{
						OFFSET 0.00000 0.00000 2.95275
					}
				}
			}
		}
	}
	JOINT Spine
	{
		OFFSET 0.00000 0.03937 0.00000
		CHANNELS 3 Xrotation Yrotation Zrotation
		JOINT Spine1
		{
			OFFSET 0.00000 10.24829 0.00000
			CHANNELS 3 Xrotation Yrotation Zrotation
			JOINT Neck
			{
				OFFSET 0.00000 7.82687 0.00000
				CHANNELS 3 Xrotation Yrotation Zrotation
				JOINT Head
				{
					OFFSET 0.00000 6.90715 0.00000
					CHANNELS 3 Xrotation Yrotation Zrotation
					End Site
					{
						OFFSET 0.00000 4.52755 0.00000
					}
				}
			}
			JOINT LeftShoulder
			{
				OFFSET 0.00000 7.82687 0.00000
				CHANNELS 3 Xrotation Yrotation Zrotation
				JOINT LeftArm
				{
					OFFSET 6.71018 -0.00002 0.00000
					CHANNELS 3 Xrotation Yrotation Zrotation
					JOINT LeftForeArm
					{
						OFFSET 10.94419 -0.00004 0.00000
						CHANNELS 3 Xrotation Yrotation Zrotation
						JOINT LeftHand
						{
							OFFSET 8.52010 -0.00003 0.00000
							CHANNELS 3 Xrotation Yrotation Zrotation
							JOINT LeftHandThumb
							{
								OFFSET 0.00000 0.00000 0.00000
								CHANNELS 3 Xrotation Yrotation Zrotation
								End Site
								{
									OFFSET 0.00000 0.00000 3.93700
								}
							}
							JOINT L_Wrist_End
							{
								OFFSET 3.93700 -0.00001 0.00000
								CHANNELS 3 Xrotation Yrotation Zrotation
							}
						}
					}
				}
			}
			JOINT RightShoulder
			{
				OFFSET 0.00000 7.82687 0.00000
				CHANNELS 3 Xrotation Yrotation Zrotation
				JOINT RightArm
				{
					OFFSET -6.71018 -0.00002 0.00000
					CHANNELS 3 Xrotation Yrotation Zrotation
					JOINT RightForeArm
					{
						OFFSET -10.94419 -0.00004 0.00000
						CHANNELS 3 Xrotation Yrotation Zrotation
						JOINT RightHand
						{
							OFFSET -8.52010 -0.00003 0.00000
							CHANNELS 3 Xrotation Yrotation Zrotation
							JOINT RightHandThumb
							{
								OFFSET 0.00000 0.00000 0.00000
								CHANNELS 3 Xrotation Yrotation Zrotation
								End Site
								{
									OFFSET 0.00000 0.00000 3.93700
								}
							}
							JOINT R_Wrist_End
							{
								OFFSET -5.39369 -0.00002 0.00000
								CHANNELS 3 Xrotation Yrotation Zrotation
							}
						}
					}
				}
			}
		}
	}
}
MOTION
Frames: 14
Frame Time: 0.008333
 12.5900 40.0057 2.8979 1.7874 7.6196 1.1716 -13.0733 -5.2387 1.3101 32.1756 -0.0000 0.0000 8.3303 -7.0345 -10.8873 -13.8659 0.0000 -0.0000 -10.0520 -14.3415 1.3809 31.8429 -0.0000 0.0000 -1.4137 -0.3047 -0.8347 4.6676 -0.0000 0.0000 -0.2117 1.4452 -2.2483 14.3539 -1.8633 -2.5818 -0.1248 -0.8771 -3.3727 7.1160 -2.4773 10.8016 19.7623 8.1912 -0.9176 -8.4542 -51.2859 -64.3505 -0.0001 -15.2830 -0.0000 -8.3646 -0.6501 -13.8442 0.0000 0.0000 0.0000 0.0000 0.0000 0.0000 12.8295 -16.6943 0.2893 -3.3411 38.9515 66.3076 -0.0001 29.1926 0.0000 -32.0999 -0.4996 11.9097 -0.0000 -0.0000 0.0000 -0.0000 -0.0000 0.0000
 12.9008 39.9538 2.8433 1.7928 7.6532 1.3389 -13.1817 -4.6148 2.0916 32.4444 -0.0000 0.0000 8.3489 -7.0445 -10.5220 -13.6171 0.0000 -0.0000 -9.8636 -14.7493 1.9912 31.5369 -0.0000 0.0000 -0.7358 0.4010 -0.5993 4.5941 -0.0000 0.0000 -0.1962 1.5120 -2.3979 14.4147 -1.8435 -2.7451 0.0225 -1.0080 -3.2377 6.8926 -2.5830 10.6342 19.7334 8.2449 -0.9378 -8.6421 -51.0994 -64.3562 -0.0001 -15.2368 -0.0000 -8.5538 -0.9868 -13.3198 0.0000 0.0000 -0.0000 0.0000 0.0000 -0.0000 12.9017 -16.7258 0.1959 -2.5815 39.2980 65.9718 -0.0001 29.5732 0.0000 -32.2408 -0.8013 12.1328 0.0000 0.0000 0.0000 0.0000 0.0000 0.0000
 13.2464 39.8746 2.7563 2.1017 7.5370 1.8801 -13.5447 -3.9420 2.3944 32.2686 -0.0000 0.0000 8.7901 -6.9824 -10.0458 -13.9066 0.0000 -0.0000 -10.2997 -14.9711 2.0567 31.4538 -0.0000 0.0000 -0.5604 1.1226 -0.1289 4.7776 0.0000 0.0000 -0.2302 1.6521 -2.5575 14.1852 -1.8938 -3.4117 0.0077 -0.9690 -3.2643 6.9624 -2.7316 10.8015 19.8449 8.3497 -1.0230 -8.5208 -50.8063 -63.9380 -0.0001 -15.4280 -0.0000 -8.8379 -1.3746 -12.7818 0.0000 0.0000 0.0000 0.0000 0.0000 0.0000 12.4883 -16.6459 -0.2111 -1.7454 39.3045 66.2941 -0.0001 29.7212 0.0000 -31.6984 -0.9969 12.3893 -0.0000 -0.0000 -0.0000 -0.0000 -0.0000 -0.0000
 13.5586 39.7694 2.7019 2.1715 7.6092 2.0271 -13.5454 -3.5272 3.1738 31.8851 -0.0000 0.0000 8.8856 -7.0621 -9.7157 -13.9135 0.0000 -0.0000 -10.0691 -15.2845 2.6955 30.7996 0.0000 0.0000 -0.5659 1.4796 0.2575 4.8261 0.0000 0.0000 -0.2335 1.7026 -2.6798 14.2019 -1.8825 -3.5480 0.0053 -1.0326 -3.2444 6.9904 -2.8309 10.7282 19.8491 8.4877 -1.0569 -8.9326 -50.4281 -64.1135 -0.0001 -15.3792 -0.0000 -9.5780 -1.6745 -12.9149 0.0000 0.0000 0.0000 0.0000 0.0000 0.0000 12.5531 -16.7262 -0.3099 -1.0163 39.6477 65.9480 -0.0001 30.0691 0.0000 -31.6052 -1.4268 12.7228 0.0000 -0.0000 -0.0000 0.0000 -0.0000 -0.0000
 13.8918 39.6351 2.6181 2.5270 7.6427 2.3572 -13.8743 -3.1069 3.6978 31.3129 -0.0000 0.0000 9.0630 -7.1510 -9.3713 -13.9897 0.0000 -0.0000 -10.3447 -15.6445 2.9690 30.3007 0.0000 0.0000 -1.0352 2.0350 0.5171 4.5488 -0.0000 0.0000 -0.3801 1.6705 -2.7796 14.1143 -2.0460 -3.9758 -0.1417 -0.8694 -3.2911 7.0823 -2.8995 10.7047 19.7067 8.7042 -1.1210 -9.1083 -49.4188 -64.2508 -0.0001 -15.7857 -0.0000 -9.6652 -1.7706 -12.6914 -0.0000 0.0000 -0.0000 -0.0000 0.0000 -0.0000 12.5058 -16.7478 -0.5583 -0.5073 40.2632 65.8630 -0.0001 30.1373 0.0000 -31.5610 -1.8252 13.0237 -0.0000 -0.0000 -0.0000 -0.0000 -0.0000 -0.0000
 14.2083 39.4765 2.5613 2.6351 7.7540 2.4948 -13.8367 -2.8189 4.4725 30.5229 -0.0000 0.0000 8.9410 -7.2657 -9.2173 -13.8291 0.0000 0.0000 -10.0873 -15.8873 3.5560 29.3522 -0.0000 0.0000 -1.6038 2.4978 0.6537 3.9678 -0.0000 -0.0000 -0.3741 1.7218 -2.8748 14.0818 -2.0233 -4.0846 -0.1685 -0.9503 -3.3051 7.0900 -3.0190 10.6143 19.8413 8.8233 -1.1449 -9.7311 -48.9923 -64.5539 -0.0001 -15.6502 -0.0000 -10.2250 -2.2027 -12.6324 0.0000 0.0000 -0.0000 0.0000 0.0000 -0.0000 12.5822 -16.8411 -0.6584 0.2157 40.5146 65.4991 -0.0001 30.4952 0.0000 -31.1170 -2.2022 13.2957 0.0000 0.0000 -0.0000 0.0000 0.0000 -0.0000
 14.5500 39.2910 2.4700 2.9780 7.9177 2.7920 -14.1666 -2.5861 4.9760 29.7245 -0.0000 0.0000 8.8811 -7.2743 -8.8140 -13.9281 0.0000 0.0000 -10.3246 -16.0991 3.7873 28.5996 -0.0000 -0.0000 -2.3072 3.2186 0.5972 3.7517 0.0000 0.0000 -0.4196 1.6444 -2.9450 13.8917 -2.1916 -4.4046 -0.3891 -0.8140 -3.4438 7.3172 -3.0913 10.6452 19.6755 9.0009 -1.1909 -9.9958 -47.8221 -64.8607 -0.0001 -16.1341 -0.0000 -10.7054 -2.1383 -12.7288 0.0000 -0.0000 -0.0000 0.0000 -0.0000 -0.0000 12.4718 -16.9202 -0.8773 0.9056 40.9913 65.2273 -0.0001 30.6955 0.0000 -30.6151 -2.5975 13.6244 -0.0000 -0.0000 -0.0000 -0.0000 -0.0000 -0.0000
 14.8710 39.0811 2.4078 3.0946 8.0413 2.9272 -14.1349 -2.3489 5.7454 28.7444 -0.0000 -0.0000 8.4669 -7.2818 -8.7825 -13.7678 0.0000 -0.0000 -10.0621 -16.0603 4.3161 27.4151 -0.0000 0.0000 -2.8658 3.9023 0.1164 3.5586 -0.0000 0.0000 -0.4045 1.6816 -3.0244 13.8789 -2.1739 -4.4829 -0.4378 -0.8998 -3.4464 7.1966 -3.2254 10.4718 19.9194 9.1027 -1.1901 -10.7767 -47.3357 -65.2611 -0.0001 -16.0213 -0.0000 -11.3673 -2.5623 -12.6649 -0.0000 0.0000 -0.0000 -0.0000 0.0000 -0.0000 12.5169 -16.9869 -0.9715 1.6369 41.2395 64.7873 -0.0001 31.0060 0.0000 -30.3454 -2.9531 13.8007 -0.0000 0.0000 -0.0000 -0.0000 0.0000 -0.0000
 15.2218 38.8434 2.3189 3.3828 8.2837 3.2246 -14.3906 -2.2145 6.1944 27.7770 -0.0000 0.0000 8.2174 -7.0937 -8.4061 -13.8614 0.0000 -0.0000 -10.2368 -15.8725 4.4820 26.4634 -0.0000 0.0000 -3.5344 4.6718 -0.3321 3.5017 -0.0000 -0.0000 -0.4309 1.5877 -3.1159 13.7202 -2.3258 -4.6979 -0.5696 -0.8512 -3.5226 7.2134 -3.3382 10.3749 19.7235 9.1942 -1.1038 -11.2062 -46.2678 -65.8664 -0.0001 -16.2287 -0.0000 -12.0083 -2.6362 -12.7194 -0.0000 -0.0000 0.0000 -0.0000 -0.0000 0.0000 12.5735 -17.0531 -1.0911 2.3243 41.7051 64.2687 -0.0001 31.2373 0.0000 -30.1119 -3.2471 13.9334 0.0000 -0.0000 0.0000 0.0000 -0.0000 0.0000
 15.5467 38.5834 2.2533 3.5086 8.4183 3.3660 -14.3698 -2.0770 6.9376 26.7127 -0.0000 0.0000 7.7383 -7.0175 -8.2614 -13.7144 -0.0000 -0.0000 -9.9746 -15.4072 4.9654 25.0627 -0.0000 0.0000 -3.9129 5.3305 -1.6149 3.3098 0.0000 0.0000 -0.4052 1.6136 -3.1776 13.7248 -2.3153 -4.7630 -0.7835 -0.8955 -3.6181 7.2784 -3.4751 10.3466 19.9600 9.3238 -1.1118 -11.8943 -45.7174 -66.1893 -0.0001 -16.4288 -0.0000 -12.4657 -2.5355 -12.7813 0.0000 0.0000 0.0000 0.0000 0.0000 0.0000 12.4840 -17.1598 -1.1897 3.0925 41.9215 63.8016 -0.0001 31.4667 0.0000 -29.5366 -3.5673 14.2385 -0.0000 -0.0000 -0.0000 -0.0000 -0.0000 -0.0000
 15.9040 38.2949 2.1668 3.7172 8.7692 3.7019 -14.5340 -2.2254 7.2896 25.6783 -0.0000 -0.0000 7.5127 -6.5578 -7.7969 -13.8910 0.0000 -0.0000 -10.0753 -14.8353 5.0444 23.9850 -0.0000 0.0000 -3.9436 5.6048 -2.1565 2.8587 0.0000 -0.0000 -0.3909 1.4748 -3.2493 13.6670 -2.5061 -4.9512 -1.0921 -0.8391 -3.8465 7.4253 -3.5835 10.4361 19.6597 9.3582 -1.0389 -11.9643 -44.6454 -66.5522 -0.0001 -17.0240 -0.0000 -13.3354 -2.3910 -12.5693 0.0000 -0.0000 0.0000 0.0000 -0.0000 0.0000 12.3749 -17.3770 -1.3362 3.7508 42.4082 63.3095 -0.0001 31.5798 0.0000 -28.7776 -3.8582 14.6150 -0.0000 -0.0000 -0.0000 -0.0000 -0.0000 -0.0000
 16.2421 37.9784 2.1017 3.8193 8.8800 3.8347 -14.4449 -2.2061 7.9799 24.5713 -0.0000 0.0000 7.0655 -6.0735 -7.8629 -13.7027 0.0000 -0.0000 -9.9584 -13.7899 5.4311 22.8127 0.0000 0.0000 -3.0239 5.3761 -2.4224 2.1896 0.0000 0.0000 -0.3790 1.5062 -3.2656 13.6825 -2.4804 -4.9786 -1.1696 -0.9147 -3.9082 7.2056 -3.7098 10.2376 19.8586 9.4401 -1.0032 -12.5451 -44.2716 -66.8997 -0.0001 -17.1006 -0.0000 -13.1118 -2.4457 -12.9200 0.0000 0.0000 0.0000 0.0000 0.0000 0.0000 12.4367 -17.4256 -1.4273 4.3841 42.5421 62.7994 -0.0001 31.7975 0.0000 -28.5508 -4.0203 14.6773 0.0000 0.0000 -0.0000 0.0000 0.0000 -0.0000
 16.6246 37.6351 2.0189 4.0124 9.0818 4.2742 -14.5240 -2.2894 8.1827 23.5373 0.0000 0.0000 7.1067 -5.2418 -7.2126 -13.8638 0.0000 -0.0000 -10.2686 -12.6309 5.2742 22.1133 -0.0000 0.0000 -1.8347 5.0929 -2.2846 1.7989 0.0000 0.0000 -0.4314 1.4743 -3.3178 13.6805 -2.5917 -5.2548 -1.2672 -0.9191 -4.0699 6.9816 -3.8218 10.1668 19.5764 9.3789 -0.8296 -12.5715 -43.5113 -67.2817 -0.0001 -17.4701 -0.0000 -13.2130 -2.4775 -12.9130 0.0000 0.0000 -0.0000 0.0000 0.0000 -0.0000 12.5080 -17.5627 -1.5548 4.8239 42.8669 62.3716 -0.0001 31.8249 0.0000 -28.2537 -4.0815 14.7459 -0.0000 0.0000 0.0000 -0.0000 0.0000 0.0000
 16.9682 37.2643 1.9597 4.0902 9.2114 4.3976 -14.4117 -2.4056 8.8568 22.5354 -0.0000 0.0000 6.9899 -4.5446 -6.9587 -13.7829 0.0000 0.0000 -10.2262 -11.3355 5.5661 21.1544 -0.0000 0.0000 -0.2325 5.0057 -2.4589 1.5010 0.0000 0.0000 -0.4320 1.4953 -3.2944 13.7246 -2.5720 -5.2589 -1.3528 -0.9740 -4.1868 6.7789 -3.9226 9.9788 19.7131 9.4754 -0.8202 -12.8686 -43.2738 -67.4404 -0.0001 -17.8384 -0.0000 -14.0044 -2.4564 -13.0027 0.0000 0.0000 0.0000 0.0000 0.0000 0.0000 12.5157 -17.6422 -1.6182 5.4411 42.9032 61.8253 -0.0001 31.8520 0.0000 -27.9692 -3.8555 15.2273 0.0000 -0.0000 -0.0000 0.0000 -0.0000 -0.0000
